<svg xmlns="http://www.w3.org/2000/svg" fill="currentColor" viewBox="0 0 20 21"><path fill-rule="evenodd" d="M6.56 6.154a2.708 2.708 0 115.417 0 2.708 2.708 0 01-5.416 0zm2.71-3.958a3.958 3.958 0 100 7.916 3.958 3.958 0 000-7.916zm6.25 9.376a.834.834 0 10-1.667-.002.834.834 0 001.668.002zm-2.71 5a1.876 1.876 0 013.753 0 .209.209 0 01-.209.21H13.02a.209.209 0 01-.208-.21zm1.877-3.125a3.126 3.126 0 00-3.126 3.126 1.46 1.46 0 001.458 1.459h3.335a1.46 1.46 0 001.459-1.46c0-1.726-1.4-3.125-3.126-3.125zm3.09-1.632a.833.833 0 11-1.177 1.178.833.833 0 011.177-1.178zm-4.758.59a.833.833 0 10-1.666-.002.833.833 0 001.666.002zM1.978 16.154a3.958 3.958 0 013.958-3.958h2.5a.625.625 0 110 1.25h-2.5a2.708 2.708 0 00-2.708 2.708v.833a.625.625 0 11-1.25 0v-.833z" clip-rule="evenodd"></path></svg>