<svg class="qodef-svg--bone qodef-default-icon" xmlns="https://www.w3.org/2000/svg" width="75.599" height="49.62" viewBox="0 0 75.599 49.62"><path d="M7.574 30.384a37.057 37.057 0 0 1-3.519-3.851c-3.2-4.656-.794-11.836 4.518-13.869 4.699-1.798 8.707-.877 12.235 2.734a3.48 3.48 0 0 0 2.738.82q11.451-2.313 22.839-4.929a3.416 3.416 0 0 0 1.991-1.767A12.724 12.724 0 0 1 65.88 3.64a8.918 8.918 0 0 1 3.943 10.526 18.738 18.738 0 0 1-1.433 3.324c-.657 1.155-.384 1.751.633 2.6 5.724 4.767 4.633 12.47-1.73 16.244-3.7 2.196-9.729.76-12.403-2.316a3.254 3.254 0 0 0-3.709-1.096 1325.885 1325.885 0 0 1-21.8 4.683 2.958 2.958 0 0 0-2.519 2.125c-2.696 7.027-13.133 9.603-18.822 4.746-3.095-2.647-3.762-7.05-1.734-11.56.422-.903.894-1.775 1.268-2.532Zm3.78-15.797a7.556 7.556 0 0 0-6.034 6.046c-.613 3.013.959 5.015 3.164 6.706.395.301.819.564 1.22.865a2.016 2.016 0 0 1 .658 2.933 32.445 32.445 0 0 0-2.09 4.18c-1.279 3.346-.329 6.256 2.63 7.91 4.486 2.51 11.74.814 13.469-4.711.658-2.102 1.792-2.937 3.935-3.356 7.709-1.503 15.384-3.191 23.04-4.946 2.054-.472 3.59-.524 5.005 1.423a8.763 8.763 0 0 0 3.569 2.573c3.597 1.556 6.945.24 9.167-3.143 2.003-3.05 1.374-6.273-1.52-8.738a20.751 20.751 0 0 0-1.722-1.24 2.09 2.09 0 0 1-.708-3.24 21.491 21.491 0 0 0 1.961-3.98c1.333-3.707.234-6.675-3.153-8.213-4.694-2.13-11.254-.331-13.013 5.172a4.145 4.145 0 0 1-3.654 3.152c-8.12 1.639-16.215 3.405-24.301 5.21a3.088 3.088 0 0 1-3.48-1.202c-2.145-2.489-4.702-4.354-8.144-3.401Z"></path><path d="M13.459 35.352c.703.784 1.444 1.244 1.456 1.718a1.9 1.9 0 0 1-1.022 1.523c-.433.107-1.492-.572-1.51-.943-.032-.616.549-1.264 1.076-2.298Z"></path><path d="M62.563 29.554c-.631.777-.987 1.61-1.478 1.704s-1.116-.559-1.682-.884c.38-.614.646-1.436 1.202-1.76.3-.178 1.099.5 1.958.94Z"></path><path d="M28.342 29c.753.782 1.516 1.223 1.529 1.684.016.515-.65 1.051-1.018 1.58-.504-.372-1.316-.668-1.426-1.129-.115-.488.449-1.132.915-2.136Z"></path><path d="M44.547 29.578c-.882-.853-1.61-1.238-1.652-1.685a1.82 1.82 0 0 1 .842-1.537c.428-.137 1.467.36 1.557.741.131.56-.34 1.263-.747 2.48Z"></path><path d="M29.169 22.573c-.854.871-1.27 1.609-1.854 1.778-.369.11-.985-.633-1.488-.993.364-.505.635-1.279 1.114-1.44s1.153.307 2.228.655Z"></path><path d="M36.471 27.444c-.815-.703-1.67-1.128-1.653-1.498.036-.614.641-1.195 1.007-1.789.502.372 1.285.662 1.427 1.141s-.38 1.13-.78 2.146Z"></path><path d="M58.817 8.221c.812.728 1.598 1.105 1.658 1.574a1.83 1.83 0 0 1-.912 1.546c-.446.138-1.55-.403-1.596-.75-.08-.608.423-1.295.85-2.37Z"></path><path d="M12.332 22.89c-.69-.791-1.414-1.256-1.415-1.72a1.807 1.807 0 0 1 1.09-1.39c.461-.09 1.532.594 1.51.853-.065.642-.606 1.238-1.185 2.258Z"></path><path d="M51.165 20.15c.752.61 1.565 1.012 1.527 1.296a5.741 5.741 0 0 1-.947 1.794c-.504-.352-1.304-.623-1.43-1.079s.431-1.093.85-2.01Z"></path><path d="M44.368 18.837c-.86.76-1.302 1.46-1.78 1.484s-1.358-.647-1.353-1.004a1.889 1.889 0 0 1 1.058-1.441c.415-.13 1.057.456 2.075.961Z"></path><path d="M63.911 26.45c-.846-.717-1.631-1.067-1.706-1.531a1.783 1.783 0 0 1 .92-1.48c.365-.136 1.326.394 1.458.808.15.477-.316 1.15-.672 2.203Z"></path><path d="M60.933 18.07c-.676.924-.996 1.712-1.57 2.003-.302.153-1.37-.474-1.496-.916a1.8 1.8 0 0 1 .872-1.545c.46-.201 1.191.217 2.194.458Z"></path><path d="M20.912 26.726c-.743.731-1.17 1.495-1.651 1.53s-1.367-.657-1.389-1.068a1.909 1.909 0 0 1 1.03-1.532c.421-.125 1.085.538 2.01 1.07Z"></path><path d="M22.376 35.412c-.734.718-1.12 1.378-1.64 1.51-.41.105-.984-.444-1.486-.7.34-.607.546-1.446 1.062-1.734.318-.18 1.105.465 2.064.924Z"></path></svg>